<?xml version="1.0" encoding="UTF-8"?>
<svg version="1.1" xmlns="http://www.w3.org/2000/svg" width="24" height="24">
<path d="M0 0 C3.12578143 1.6720747 5.39281175 3.7856235 7 7 C7.51512617 11.09157355 7.94367269 15.23589546 5.953125 18.95703125 C3.55501226 21.85592636 1.60351712 23.79811835 -2.171875 24.2734375 C-9.98876369 24.58137554 -9.98876369 24.58137554 -13.5625 21.625 C-17.3057723 17.59378368 -17.39037018 14.90519941 -17.359375 9.55078125 C-16.78039966 5.44131496 -15.00085071 3.78650423 -12 1 C-8.27533151 -0.86233425 -4.05504687 -0.57130829 0 0 Z " fill="#AF87A8" transform="translate(17,0)"/>
<path d="M0 0 C2.85408007 1.35525734 3.8705564 2.48834857 6 5 C6.875 8.3125 6.875 8.3125 7 11 C2.25 12 2.25 12 0 12 C-0.99 12.185625 -1.98 12.37125 -3 12.5625 C-7.72064766 13.28107639 -12.29669913 12.61511983 -17 12 C-16.8281043 7.61665958 -16.39850089 5.48024466 -13.5625 2.0625 C-9.41043293 -0.94899925 -4.90402274 -0.98557345 0 0 Z " fill="#CD8996" transform="translate(17,0)"/>
<path d="M0 0 C0 3 0 3 -1.875 5.1875 C-6.23777969 7.71791222 -10.06558077 7.97879463 -15 7 C-17.27677176 5.53780658 -18.34776031 4.20298625 -20 2 C-16.27458085 0.80187525 -12.7631107 0.93506287 -8.875 1 C-4.27274665 1.26438564 -4.27274665 1.26438564 0 0 Z " fill="#9586B7" transform="translate(22,17)"/>
<path d="M0 0 C0.99 0.66 1.98 1.32 3 2 C3 2.66 3 3.32 3 4 C-3.40766041 5.83292414 -8.41276707 6.04559253 -15 5 C-10.82912757 -0.56116324 -6.78424537 -1.09237849 0 0 Z " fill="#E78B87" transform="translate(17,0)"/>
</svg>
